Coordinates
version=1
nRows=10
nColumns=40
inDegrees=yes

Units are S.I. units (second, meters, Newtons, ...)
If the header above contains a line with 'inDegrees', this indicates whether rotational values are in degrees (yes) or radians (no).

endheader
time	pelvis_tilt	pelvis_list	pelvis_rotation	pelvis_tx	pelvis_ty	pelvis_tz	hip_flexion_r	hip_adduction_r	hip_rotation_r	knee_angle_r	knee_angle_r_beta	ankle_angle_r	subtalar_angle_r	mtp_angle_r	hip_flexion_l	hip_adduction_l	hip_rotation_l	knee_angle_l	knee_angle_l_beta	ankle_angle_l	subtalar_angle_l	mtp_angle_l	lumbar_extension	lumbar_bending	lumbar_rotation	arm_flex_r	arm_add_r	arm_rot_r	elbow_flex_r	pro_sup_r	wrist_flex_r	wrist_dev_r	arm_flex_l	arm_add_l	arm_rot_l	elbow_flex_l	pro_sup_l	wrist_flex_l	wrist_dev_l
      5.40000000	    -12.37239505	      2.19924261	      0.95144253	     -0.23353138	      1.19338118	     -0.91196015	     13.04679709	     -5.70747900	    -21.88489078	      7.59173142	      0.13250071	    -38.59723320	      0.00000000	      0.00000000	     13.21421133	      0.45404684	    -16.94785428	      7.68111824	      0.13406080	    -39.27788182	      0.00000000	      0.00000000	     -3.36469530	     -2.66963301	      1.63123294	     -6.98546557	    -49.02446341	     54.40632273	     89.04284194	     87.22235047	      0.00000000	      0.00000000	     -4.41868178	    -47.58694494	     59.32469498	     85.66841802	     87.31926740	      0.00000000	      0.00000000
      5.40500000	    -12.21162236	      2.14342637	      0.87221619	     -0.23244464	      1.19997422	     -0.91175417	     12.56870077	     -5.49348541	    -22.13744686	      7.19098442	      0.12550635	    -38.47139541	      0.00000000	      0.00000000	     12.58263145	      0.58843619	    -16.87957675	      6.83035015	      0.11921210	    -39.19355514	      0.00000000	      0.00000000	     -3.19682351	     -2.61584528	      1.82223736	     -6.12846993	    -49.00468625	     55.79642399	     88.39247059	     87.19551175	      0.00000000	      0.00000000	     -4.05228466	    -47.48630417	     59.88670614	     85.35272465	     87.29550986	      0.00000000	      0.00000000
      5.41000000	    -11.99210257	      2.01946879	      0.83972722	     -0.23141570	      1.20644995	     -0.91149650	     12.03245787	     -5.23641216	    -22.77111899	      6.82168798	      0.11906092	    -38.32325231	      0.00000000	      0.00000000	     12.00372349	      0.57074166	    -17.21128505	      6.24254451	      0.10895296	    -39.12825329	      0.00000000	      0.00000000	     -3.09585197	     -2.49442908	      1.94833866	     -5.30479208	    -48.92391916	     57.01603365	     87.69768297	     87.18417353	      0.00000000	      0.00000000	     -3.89988743	    -47.31546043	     60.10558091	     84.99829228	     87.25780900	      0.00000000	      0.00000000
      5.41500000	    -11.92281953	      1.88238506	      0.77892858	     -0.23053013	      1.21252819	     -0.91115753	     11.68638108	     -4.98063134	    -23.50002886	      6.51440736	      0.11369786	    -37.96285231	      0.00000000	      0.00000000	     11.65590541	      0.47030499	    -17.75857016	      5.84521960	      0.10201833	    -38.90818683	      0.00000000	      0.00000000	     -2.88194963	     -2.35622222	      2.25749116	     -5.15582768	    -48.77058355	     57.26901626	     87.20042609	     87.18875237	      0.00000000	      0.00000000	     -3.71193581	    -47.11068417	     60.05765838	     84.75268817	     87.26291960	      0.00000000	      0.00000000
      5.42000000	    -11.31343120	      1.62589088	      0.82260116	     -0.22888673	      1.21917931	     -0.91072389	     10.68201622	     -4.61706102	    -25.21337212	      6.16929387	      0.10767449	    -37.99993547	      0.00000000	      0.00000000	     10.59679406	      0.22838592	    -18.81130101	      5.28297908	      0.09220538	    -38.95091902	      0.00000000	      0.00000000	     -3.17094863	     -2.10208517	      2.15086467	     -4.09108774	    -48.58856491	     58.56921995	     86.42859363	     87.19567160	      0.00000000	      0.00000000	     -3.58455705	    -46.92119660	     60.34645563	     84.31293146	     87.26884611	      0.00000000	      0.00000000
      5.42500000	    -11.25874119	      1.41284394	      0.80683775	     -0.22766200	      1.22484142	     -0.91033664	     10.33233751	     -4.29823402	    -26.37610328	      5.88495676	      0.10271187	    -37.68440986	      0.00000000	      0.00000000	     10.23621601	      0.02938794	    -19.74913679	      4.94109769	      0.08623842	    -38.84165945	      0.00000000	      0.00000000	     -2.88586786	     -1.88737278	      2.33198991	     -3.98417696	    -48.31964402	     58.70203345	     85.82016273	     87.19732499	      0.00000000	      0.00000000	     -3.56752613	    -46.69514688	     60.27755159	     84.03844706	     87.26792682	      0.00000000	      0.00000000
      5.43000000	    -10.76316316	      1.29354089	      0.85416366	     -0.22623955	      1.23098342	     -0.90979212	      9.58662846	     -4.13262015	    -28.12990128	      5.84695129	      0.10204855	    -37.72655909	      0.00000000	      0.00000000	      9.57947144	     -0.19844652	    -21.31515708	      5.03366556	      0.08785404	    -38.80546155	      0.00000000	      0.00000000	     -3.13628979	     -1.81465538	      2.28762229	     -3.55662876	    -47.97146229	     58.95281625	     85.19187385	     87.20367221	      0.00000000	      0.00000000	     -3.50786246	    -46.49920824	     60.23822795	     83.74602342	     87.27520495	      0.00000000	      0.00000000
      5.43500000	    -10.68150314	      1.15940611	      0.90620264	     -0.22515011	      1.23640267	     -0.90934244	      9.25404995	     -3.92033520	    -29.03876829	      5.74647749	      0.10029495	    -37.56093048	      0.00000000	      0.00000000	      9.32998454	     -0.36181379	    -22.13795005	      4.94912785	      0.08637858	    -38.73301959	      0.00000000	      0.00000000	     -2.91234229	     -1.70916085	      2.29745401	     -3.35585575	    -47.58275873	     58.94090811	     84.63849567	     87.19764632	      0.00000000	      0.00000000	     -3.50638840	    -46.34695554	     60.20116016	     83.53857491	     87.27881671	      0.00000000	      0.00000000
      5.44000000	    -10.39190824	      1.08765288	      1.00070725	     -0.22424990	      1.24189523	     -0.90862433	      8.79262116	     -3.79376941	    -30.10304091	      5.81014755	      0.10140620	    -37.54943745	      0.00000000	      0.00000000	      8.96947986	     -0.55593621	    -23.08480630	      5.17184012	      0.09026564	    -38.73418204	      0.00000000	      0.00000000	     -3.01243296	     -1.75218215	      2.17199701	     -3.07373477	    -47.12009347	     58.94988580	     83.93870519	     87.24213041	      0.00000000	      0.00000000	     -3.44787375	    -46.26774108	     60.15257552	     83.40105570	     87.28536708	      0.00000000	      0.00000000
      5.44500000	    -10.51410270	      1.30616830	      0.92477274	     -0.22356898	      1.24648270	     -0.90793124	      8.88412160	     -4.01930307	    -30.52418780	      6.03605549	      0.10534904	    -37.64324778	      0.00000000	      0.00000000	      9.05231422	     -0.41318179	    -23.69196380	      5.37546776	      0.09381961	    -38.74270551	      0.00000000	      0.00000000	     -2.62218830	     -2.07734155	      2.22227959	     -2.83291475	    -46.69411957	     58.94989354	     83.59521609	     87.27121521	      0.00000000	      0.00000000	     -3.52040466	    -46.21902686	     60.07415000	     83.36378107	     87.28404803	      0.00000000	      0.00000000
